<svg width="94" height="94" viewBox="0 0 94 94" fill="none" xmlns="http://www.w3.org/2000/svg">
<circle cx="47" cy="47" r="46" fill="white" stroke="#CBD0DC" stroke-width="2"/>
<path d="M38.2988 61.0684H34.6188C28.9838 60.6659 26.4539 56.3342 26.4539 52.4817C26.4539 48.6292 28.9838 44.2784 34.5229 43.8951C35.3088 43.8184 35.9988 44.4317 36.0563 45.2367C36.1138 46.0226 35.5197 46.7126 34.7147 46.7701C30.9964 47.0384 29.3289 49.8367 29.3289 52.5009C29.3289 55.165 30.9964 57.9634 34.7147 58.2317H38.2988C39.0847 58.2317 39.7363 58.8834 39.7363 59.6692C39.7363 60.455 39.0847 61.0684 38.2988 61.0684Z" fill="#292D32"/>
<path d="M55.9506 61.0683C55.9123 61.0683 55.8932 61.0683 55.8548 61.0683C55.069 61.0683 54.3407 60.4167 54.3407 59.6308C54.3407 58.8067 54.954 58.1933 55.759 58.1933C58.1165 58.1933 60.2248 57.3692 61.8732 55.8933C64.8632 53.2867 65.0548 49.53 64.2498 46.885C63.4448 44.2592 61.2023 41.25 57.2923 40.7708C56.6598 40.6942 56.1614 40.215 56.0464 39.5825C55.2798 34.9825 52.8073 31.8008 49.0507 30.6508C45.179 29.4433 40.6556 30.6317 37.8381 33.5833C35.0973 36.4392 34.4648 40.445 36.0556 44.8533C36.324 45.6008 35.9407 46.425 35.1932 46.6933C34.4457 46.9617 33.6215 46.5783 33.3532 45.8308C31.4173 40.4258 32.299 35.2508 35.7682 31.6092C39.314 27.8908 45.0065 26.415 49.894 27.91C54.379 29.29 57.5415 32.9892 58.6915 38.1258C62.6014 39.0075 65.7448 41.9783 66.9907 46.08C68.3515 50.5458 67.1248 55.1458 63.7707 58.0592C61.6432 59.9758 58.864 61.0683 55.9506 61.0683Z" fill="#292D32"/>
<path d="M47 66.7034C43.1475 66.7034 39.5442 64.6526 37.57 61.3367C37.3592 61.0109 37.1484 60.6276 36.9759 60.2059C36.3242 58.8451 35.9792 57.2926 35.9792 55.6826C35.9792 49.6067 40.9242 44.6617 47 44.6617C53.0758 44.6617 58.0208 49.6067 58.0208 55.6826C58.0208 57.3117 57.6759 58.8451 56.9859 60.2634C56.8325 60.6276 56.6217 61.0109 56.3917 61.3751C54.4559 64.6526 50.8525 66.7034 47 66.7034ZM47 47.5367C42.515 47.5367 38.8542 51.1976 38.8542 55.6826C38.8542 56.8709 39.1033 57.9826 39.5825 58.9984C39.7358 59.3242 39.87 59.5926 40.0233 59.8417C41.48 62.3142 44.1441 63.8284 46.9808 63.8284C49.8175 63.8284 52.4816 62.3142 53.9191 59.8801C54.0916 59.5926 54.2451 59.3242 54.3601 59.0559C54.8776 58.0017 55.1266 56.8901 55.1266 55.7017C55.1458 51.1976 51.485 47.5367 47 47.5367Z" fill="#292D32"/>
<path d="M45.9073 59.0174C45.5432 59.0174 45.179 58.8833 44.8915 58.5958L42.9939 56.6983C42.4381 56.1424 42.4381 55.2224 42.9939 54.6666C43.5498 54.1108 44.4698 54.1108 45.0256 54.6666L45.9457 55.5866L49.0123 52.7499C49.6065 52.2133 50.5073 52.2516 51.044 52.8266C51.5806 53.4016 51.5423 54.3216 50.9673 54.8583L46.8848 58.6341C46.5973 58.8833 46.2523 59.0174 45.9073 59.0174Z" fill="#292D32"/>
</svg>
